<svg width="24" height="24" viewBox="0 0 24 24" fill="none" xmlns="http://www.w3.org/2000/svg">
<g clip-path="url(#clip0_354_636)">
<path d="M19.2002 6.99999H18.8102C18.93 6.67992 18.9943 6.34172 19.0002 5.99999C18.9792 5.18658 18.6372 4.41452 18.0489 3.85242C17.4606 3.29033 16.6737 2.98387 15.8602 2.99999C15.0607 3.01726 14.2806 3.24915 13.6015 3.67138C12.9224 4.09361 12.3694 4.69066 12.0002 5.4C11.631 4.69066 11.078 4.09361 10.3989 3.67138C9.71979 3.24915 8.93967 3.01726 8.1402 2.99999C7.32668 2.98387 6.53983 3.29033 5.9515 3.85242C5.36318 4.41452 5.02118 5.18658 5.0002 5.99999C5.00611 6.34172 5.07037 6.67992 5.1902 6.99999H4.8002C4.53706 7.02498 4.28148 7.10188 4.04824 7.22625C3.815 7.35062 3.60873 7.51999 3.44134 7.72456C3.27396 7.92914 3.14879 8.16487 3.07307 8.41812C2.99735 8.67137 2.97259 8.93711 3.0002 9.19999V12.8C2.95349 13.2842 3.07798 13.7695 3.35204 14.1715C3.62609 14.5734 4.03237 14.8666 4.5002 15V19.37C4.53107 19.8236 4.73725 20.2473 5.07508 20.5516C5.41291 20.8558 5.85588 21.0166 6.3102 21H17.6902C18.1511 21.0163 18.5997 20.85 18.9387 20.5373C19.2776 20.2245 19.4794 19.7907 19.5002 19.33V15C19.968 14.8666 20.3743 14.5734 20.6484 14.1715C20.9224 13.7695 21.0469 13.2842 21.0002 12.8V9.19999C21.0278 8.93711 21.0031 8.67137 20.9273 8.41812C20.8516 8.16487 20.7264 7.92914 20.5591 7.72456C20.3917 7.51999 20.1854 7.35062 19.9522 7.22625C19.7189 7.10188 19.4633 7.02498 19.2002 6.99999ZM19.0002 9.19999V12.8C19.0122 12.8661 19.0122 12.9339 19.0002 13H13.0002V8.99999H19.0002C19.0122 9.06612 19.0122 9.13387 19.0002 9.19999ZM15.8602 4.99999C16.1435 4.98349 16.4219 5.07914 16.6352 5.26627C16.8486 5.4534 16.9797 5.71697 17.0002 5.99999C16.9797 6.28302 16.8486 6.54659 16.6352 6.73372C16.4219 6.92085 16.1435 7.0165 15.8602 6.99999H13.4002C13.5752 6.46577 13.9001 5.99315 14.3363 5.63853C14.7725 5.2839 15.3015 5.06225 15.8602 4.99999ZM7.0002 5.99999C7.02074 5.71697 7.15185 5.4534 7.36518 5.26627C7.57851 5.07914 7.85691 4.98349 8.1402 4.99999C8.69712 5.06406 9.22396 5.28654 9.65823 5.64104C10.0925 5.99554 10.4159 6.46718 10.5902 6.99999H8.1402C7.85691 7.0165 7.57851 6.92085 7.36518 6.73372C7.15185 6.54659 7.02074 6.28302 7.0002 5.99999ZM5.0002 9.19999C4.9882 9.13387 4.9882 9.06612 5.0002 8.99999H11.0002V13H5.0002C4.9882 12.9339 4.9882 12.8661 5.0002 12.8V9.19999ZM6.5002 15H11.0002V19H6.5002V15ZM13.0002 19V15H17.5002V19H13.0002Z" fill="#666666"/>
</g>
<defs>
<clipPath id="clip0_354_636">
<rect width="24" height="24" fill="white"/>
</clipPath>
</defs>
</svg>
