<svg width="303" height="261" viewBox="0 0 303 261" fill="none" xmlns="http://www.w3.org/2000/svg">
<path d="M505.505 39.0154C505.505 -83.4904 406.098 -182.801 283.473 -182.801C160.848 -182.801 61.4414 -83.4904 61.4414 39.0154C61.4414 161.521 160.848 260.832 283.473 260.832C406.098 260.832 505.505 161.521 505.505 39.0154Z" stroke="#0C0C0C" stroke-width="0.5"/>
<path d="M442.885 -34.3067C442.885 -156.812 343.478 -256.123 220.853 -256.123C98.2283 -256.123 -1.17871 -156.812 -1.17871 -34.3067C-1.17871 88.1991 98.2283 187.51 220.853 187.51C343.478 187.51 442.885 88.1991 442.885 -34.3067Z" stroke="#0C0C0C" stroke-width="0.5"/>
<path d="M170.353 226.021C170.353 222.677 167.64 219.966 164.293 219.966C160.947 219.966 158.233 222.677 158.233 226.021C158.233 229.364 160.947 232.075 164.293 232.075C167.64 232.075 170.353 229.364 170.353 226.021Z" fill="#0C0C0C" stroke="#F5F5F5" stroke-width="4"/>
<path d="M25.5859 63.2319C25.5859 61.0029 23.7771 59.1958 21.5459 59.1958C19.3146 59.1958 17.5059 61.0029 17.5059 63.2319C17.5059 65.461 19.3146 67.268 21.5459 67.268C23.7771 67.268 25.5859 65.461 25.5859 63.2319Z" fill="#0C0C0C" stroke="#F5F5F5" stroke-width="4"/>
<path d="M282.8 180.951C282.8 176.864 279.484 173.551 275.393 173.551C271.302 173.551 267.986 176.864 267.986 180.951C267.986 185.038 271.302 188.35 275.393 188.35C279.484 188.35 282.8 185.038 282.8 180.951Z" fill="#0C0C0C" stroke="#F5F5F5" stroke-width="4"/>
</svg>
